<svg xmlns="http://www.w3.org/2000/svg" viewBox="0 0 323.7878749125895 228.36345830876553">
<g transform="translate(160.7839945841779, 118.58257857840896)">
<clipPath id="CP">
<rect x="-150.7839945841779" y="-108.58257857840896" width="303.7878749125895" height="208.36345830876553" stroke="black" stroke-width="1" fill="white"/>
</clipPath>
<g clip-path="url(#CP)">
<rect x="-150.7839945841779" y="-108.58257857840896" width="303.7878749125895" height="208.36345830876553" stroke="black" stroke-width="1" fill="white"/>
<line x1="107.8167237085266" y1="-54.92829879989213" x2="107.8167237085266" y2="-46.92829879989213" stroke="red" stroke-width="2"/>
<line x1="103.8167237085266" y1="-50.92829879989213" x2="111.8167237085266" y2="-50.92829879989213" stroke="red" stroke-width="2"/>
<line x1="81.06937382573513" y1="-80.84611014682096" x2="81.06937382573513" y2="-72.84611014682096" stroke="red" stroke-width="2"/>
<line x1="77.06937382573513" y1="-76.84611014682096" x2="85.06937382573513" y2="-76.84611014682096" stroke="red" stroke-width="2"/>
<line x1="65.82498860926744" y1="-69.5693918070024" x2="65.82498860926744" y2="-61.569391807002404" stroke="red" stroke-width="2"/>
<line x1="61.824988609267436" y1="-65.5693918070024" x2="69.82498860926744" y2="-65.5693918070024" stroke="red" stroke-width="2"/>
<line x1="66.50136641092169" y1="-80.30353174195615" x2="66.50136641092169" y2="-72.30353174195615" stroke="red" stroke-width="2"/>
<line x1="62.50136641092169" y1="-76.30353174195615" x2="70.50136641092169" y2="-76.30353174195615" stroke="red" stroke-width="2"/>
<line x1="57.91833432228736" y1="-61.00519109624618" x2="57.91833432228736" y2="-53.00519109624618" stroke="red" stroke-width="2"/>
<line x1="53.91833432228736" y1="-57.00519109624618" x2="61.91833432228736" y2="-57.00519109624618" stroke="red" stroke-width="2"/>
<line x1="51.13282087245341" y1="-46.51229189263459" x2="51.13282087245341" y2="-38.51229189263459" stroke="red" stroke-width="2"/>
<line x1="47.13282087245341" y1="-42.51229189263459" x2="55.13282087245341" y2="-42.51229189263459" stroke="red" stroke-width="2"/>
<line x1="49.557962803669625" y1="-53.722585584189204" x2="49.557962803669625" y2="-45.722585584189204" stroke="red" stroke-width="2"/>
<line x1="45.557962803669625" y1="-49.722585584189204" x2="53.557962803669625" y2="-49.722585584189204" stroke="red" stroke-width="2"/>
<line x1="48.734931832000036" y1="-98.64411062613225" x2="48.734931832000036" y2="-90.64411062613225" stroke="red" stroke-width="2"/>
<line x1="44.734931832000036" y1="-94.64411062613225" x2="52.734931832000036" y2="-94.64411062613225" stroke="red" stroke-width="2"/>
<line x1="42.033729580553526" y1="-63.935664226603414" x2="42.033729580553526" y2="-55.935664226603414" stroke="red" stroke-width="2"/>
<line x1="38.033729580553526" y1="-59.935664226603414" x2="46.033729580553526" y2="-59.935664226603414" stroke="red" stroke-width="2"/>
<line x1="46.54538364554757" y1="-107.97384650270163" x2="46.54538364554757" y2="-99.97384650270163" stroke="red" stroke-width="2"/>
<line x1="42.54538364554757" y1="-103.97384650270163" x2="50.54538364554757" y2="-103.97384650270163" stroke="red" stroke-width="2"/>
<line x1="25.664169416202903" y1="-77.95653673114701" x2="25.664169416202903" y2="-69.95653673114701" stroke="red" stroke-width="2"/>
<line x1="21.664169416202903" y1="-73.95653673114701" x2="29.664169416202903" y2="-73.95653673114701" stroke="red" stroke-width="2"/>
<line x1="13.86797389940843" y1="-96.86138957927548" x2="13.86797389940843" y2="-88.86138957927548" stroke="red" stroke-width="2"/>
<line x1="9.86797389940843" y1="-92.86138957927548" x2="17.86797389940843" y2="-92.86138957927548" stroke="red" stroke-width="2"/>
<line x1="10.406980143354271" y1="-45.356919225485214" x2="10.406980143354271" y2="-37.356919225485214" stroke="red" stroke-width="2"/>
<line x1="6.4069801433542715" y1="-41.356919225485214" x2="14.406980143354271" y2="-41.356919225485214" stroke="red" stroke-width="2"/>
<line x1="-3.275082664207319" y1="-83.51724078154999" x2="-3.275082664207319" y2="-75.51724078154999" stroke="red" stroke-width="2"/>
<line x1="-7.27508266420732" y1="-79.51724078154999" x2="0.7249173357926808" y2="-79.51724078154999" stroke="red" stroke-width="2"/>
<line x1="-3.903601859890707" y1="-57.74453858216177" x2="-3.903601859890707" y2="-49.74453858216177" stroke="red" stroke-width="2"/>
<line x1="-7.903601859890707" y1="-53.74453858216177" x2="0.09639814010929282" y2="-53.74453858216177" stroke="red" stroke-width="2"/>
<line x1="-3.994535602139228" y1="-46.394124368589445" x2="-3.994535602139228" y2="-38.394124368589445" stroke="red" stroke-width="2"/>
<line x1="-7.994535602139228" y1="-42.394124368589445" x2="0.005464397860771797" y2="-42.394124368589445" stroke="red" stroke-width="2"/>
<line x1="-5.402353539576219" y1="-46.263646479992566" x2="-5.402353539576219" y2="-38.263646479992566" stroke="red" stroke-width="2"/>
<line x1="-9.402353539576218" y1="-42.263646479992566" x2="-1.402353539576219" y2="-42.263646479992566" stroke="red" stroke-width="2"/>
<line x1="-8.711397778686324" y1="-72.8767236640432" x2="-8.711397778686324" y2="-64.8767236640432" stroke="red" stroke-width="2"/>
<line x1="-12.711397778686324" y1="-68.8767236640432" x2="-4.711397778686324" y2="-68.8767236640432" stroke="red" stroke-width="2"/>
<line x1="-10.875111858556117" y1="-68.05723768136897" x2="-10.875111858556117" y2="-60.057237681368974" stroke="red" stroke-width="2"/>
<line x1="-14.875111858556117" y1="-64.05723768136897" x2="-6.875111858556117" y2="-64.05723768136897" stroke="red" stroke-width="2"/>
<line x1="-15.654742388216322" y1="-90.39810917582058" x2="-15.654742388216322" y2="-82.39810917582058" stroke="red" stroke-width="2"/>
<line x1="-19.65474238821632" y1="-86.39810917582058" x2="-11.654742388216322" y2="-86.39810917582058" stroke="red" stroke-width="2"/>
<line x1="-14.949898775217369" y1="-36.64087442660279" x2="-14.949898775217369" y2="-28.640874426602792" stroke="red" stroke-width="2"/>
<line x1="-18.94989877521737" y1="-32.64087442660279" x2="-10.949898775217369" y2="-32.64087442660279" stroke="red" stroke-width="2"/>
<line x1="-19.353280691572408" y1="-87.50138526529601" x2="-19.353280691572408" y2="-79.50138526529601" stroke="red" stroke-width="2"/>
<line x1="-23.353280691572408" y1="-83.50138526529601" x2="-15.353280691572408" y2="-83.50138526529601" stroke="red" stroke-width="2"/>
<line x1="-26.386823205539667" y1="-43.891538227430765" x2="-26.386823205539667" y2="-35.891538227430765" stroke="red" stroke-width="2"/>
<line x1="-30.386823205539667" y1="-39.891538227430765" x2="-22.386823205539667" y2="-39.891538227430765" stroke="red" stroke-width="2"/>
<line x1="-31.083929079188014" y1="-81.32076396250321" x2="-31.083929079188014" y2="-73.32076396250321" stroke="red" stroke-width="2"/>
<line x1="-35.08392907918801" y1="-77.32076396250321" x2="-27.083929079188014" y2="-77.32076396250321" stroke="red" stroke-width="2"/>
<line x1="-36.46345808975797" y1="-68.92137810557716" x2="-36.46345808975797" y2="-60.92137810557716" stroke="red" stroke-width="2"/>
<line x1="-40.46345808975797" y1="-64.92137810557716" x2="-32.46345808975797" y2="-64.92137810557716" stroke="red" stroke-width="2"/>
<line x1="-38.44744082814942" y1="-79.35858821406546" x2="-38.44744082814942" y2="-71.35858821406546" stroke="red" stroke-width="2"/>
<line x1="-42.44744082814942" y1="-75.35858821406546" x2="-34.44744082814942" y2="-75.35858821406546" stroke="red" stroke-width="2"/>
<line x1="-136.3423045218369" y1="-110.66100323861416" x2="-136.3423045218369" y2="-102.66100323861416" stroke="red" stroke-width="2"/>
<line x1="-140.3423045218369" y1="-106.66100323861416" x2="-132.3423045218369" y2="-106.66100323861416" stroke="red" stroke-width="2"/>
<rect x="-150.7839945841779" y="-108.58257857840896" width="303.7878749125895" height="208.36345830876553" stroke="black" stroke-width="1" fill="none"/>
<text x="-130.7839945841779" y="-78.58257857840896" font-size="20" fill="black">22</text>
</g>
</g>
</svg>
