<svg xmlns="http://www.w3.org/2000/svg" viewBox="0 0 700.00 480.12" width="3in" height="2.0576541282503715in">
<g transform="translate(352.56, 229.92)">
<clipPath id="CP">
<rect x="-352.56" y="-229.92" width="700.00" height="480.12" stroke="black" stroke-width="1" fill="white"/>
</clipPath>
<g clip-path="url(#CP)">
<rect x="-352.56" y="-229.92" width="700.00" height="480.12" fill="white"/>
<line x1="-346.48" y1="-120.12" x2="-346.48" y2="-112.12" stroke="red" stroke-width="2"/>
<line x1="-350.48" y1="-116.12" x2="-342.48" y2="-116.12" stroke="red" stroke-width="2"/>
<line x1="-186.93" y1="-80.09" x2="-186.93" y2="-72.09" stroke="red" stroke-width="2"/>
<line x1="-190.93" y1="-76.09" x2="-182.93" y2="-76.09" stroke="red" stroke-width="2"/>
<line x1="-178.19" y1="-159.82" x2="-178.19" y2="-151.82" stroke="red" stroke-width="2"/>
<line x1="-182.19" y1="-155.82" x2="-174.19" y2="-155.82" stroke="red" stroke-width="2"/>
<line x1="-312.16" y1="-193.24" x2="-312.16" y2="-185.24" stroke="red" stroke-width="2"/>
<line x1="-316.16" y1="-189.24" x2="-308.16" y2="-189.24" stroke="red" stroke-width="2"/>
<line x1="-340.27" y1="-195.40" x2="-340.27" y2="-187.40" stroke="red" stroke-width="2"/>
<line x1="-344.27" y1="-191.40" x2="-336.27" y2="-191.40" stroke="red" stroke-width="2"/>
<line x1="258.73" y1="-200.43" x2="258.73" y2="-192.43" stroke="red" stroke-width="2"/>
<line x1="254.73" y1="-196.43" x2="262.73" y2="-196.43" stroke="red" stroke-width="2"/>
<line x1="326.41" y1="48.29" x2="326.41" y2="56.29" stroke="red" stroke-width="2"/>
<line x1="322.41" y1="52.29" x2="330.41" y2="52.29" stroke="red" stroke-width="2"/>
<line x1="245.60" y1="-115.50" x2="245.60" y2="-107.50" stroke="red" stroke-width="2"/>
<line x1="241.60" y1="-111.50" x2="249.60" y2="-111.50" stroke="red" stroke-width="2"/>
<line x1="215.65" y1="-64.60" x2="215.65" y2="-56.60" stroke="red" stroke-width="2"/>
<line x1="211.65" y1="-60.60" x2="219.65" y2="-60.60" stroke="red" stroke-width="2"/>
<line x1="130.36" y1="-91.61" x2="130.36" y2="-83.61" stroke="red" stroke-width="2"/>
<line x1="126.36" y1="-87.61" x2="134.36" y2="-87.61" stroke="red" stroke-width="2"/>
<line x1="108.43" y1="-211.28" x2="108.43" y2="-203.28" stroke="red" stroke-width="2"/>
<line x1="104.43" y1="-207.28" x2="112.43" y2="-207.28" stroke="red" stroke-width="2"/>
<line x1="103.16" y1="-65.11" x2="103.16" y2="-57.11" stroke="red" stroke-width="2"/>
<line x1="99.16" y1="-61.11" x2="107.16" y2="-61.11" stroke="red" stroke-width="2"/>
<line x1="76.28" y1="-109.96" x2="76.28" y2="-101.96" stroke="red" stroke-width="2"/>
<line x1="72.28" y1="-105.96" x2="80.28" y2="-105.96" stroke="red" stroke-width="2"/>
<line x1="56.57" y1="-170.68" x2="56.57" y2="-162.68" stroke="red" stroke-width="2"/>
<line x1="52.57" y1="-166.68" x2="60.57" y2="-166.68" stroke="red" stroke-width="2"/>
<line x1="29.70" y1="-194.12" x2="29.70" y2="-186.12" stroke="red" stroke-width="2"/>
<line x1="25.70" y1="-190.12" x2="33.70" y2="-190.12" stroke="red" stroke-width="2"/>
<line x1="278.44" y1="179.32" x2="278.44" y2="187.32" stroke="red" stroke-width="2"/>
<line x1="274.44" y1="183.32" x2="282.44" y2="183.32" stroke="red" stroke-width="2"/>
<line x1="-10.78" y1="-107.91" x2="-10.78" y2="-99.91" stroke="red" stroke-width="2"/>
<line x1="-14.78" y1="-103.91" x2="-6.78" y2="-103.91" stroke="red" stroke-width="2"/>
<line x1="-30.13" y1="-149.02" x2="-30.13" y2="-141.02" stroke="red" stroke-width="2"/>
<line x1="-34.13" y1="-145.02" x2="-26.13" y2="-145.02" stroke="red" stroke-width="2"/>
<line x1="-53.50" y1="-178.70" x2="-53.50" y2="-170.70" stroke="red" stroke-width="2"/>
<line x1="-57.50" y1="-174.70" x2="-49.50" y2="-174.70" stroke="red" stroke-width="2"/>
<line x1="-20.05" y1="77.23" x2="-20.05" y2="85.23" stroke="red" stroke-width="2"/>
<line x1="-24.05" y1="81.23" x2="-16.05" y2="81.23" stroke="red" stroke-width="2"/>
<line x1="-90.56" y1="35.80" x2="-90.56" y2="43.80" stroke="red" stroke-width="2"/>
<line x1="-94.56" y1="39.80" x2="-86.56" y2="39.80" stroke="red" stroke-width="2"/>
<line x1="287.35" y1="96.70" x2="287.35" y2="104.70" stroke="red" stroke-width="2"/>
<line x1="283.35" y1="100.70" x2="291.35" y2="100.70" stroke="red" stroke-width="2"/>
<line x1="286.79" y1="97.70" x2="286.79" y2="105.70" stroke="red" stroke-width="2"/>
<line x1="282.79" y1="101.70" x2="290.79" y2="101.70" stroke="red" stroke-width="2"/>
<line x1="223.13" y1="90.79" x2="223.13" y2="98.79" stroke="red" stroke-width="2"/>
<line x1="219.13" y1="94.79" x2="227.13" y2="94.79" stroke="red" stroke-width="2"/>
<text x="-332.56" y="-199.92" font-size="20" fill="black">9</text>
<rect x="-352.56" y="-229.92" width="700.00" height="480.12" stroke="black" stroke-width="0.5" fill="none"/>
</g>
</g>
</svg>
